<svg width="20" height="20" viewBox="0 0 20 20" fill="none" xmlns="http://www.w3.org/2000/svg">
<path d="M8.55728 2.87586C9.22193 1.81913 10.7777 1.81913 11.4424 2.87586L13.0498 5.43148C13.2836 5.80328 13.6551 6.07009 14.0851 6.17505L17.0405 6.89651C18.2626 7.19483 18.7434 8.65754 17.9321 9.60895L15.9701 11.9099C15.6846 12.2446 15.5427 12.6763 15.5746 13.113L15.7938 16.1145C15.8844 17.3556 14.6257 18.2596 13.4597 17.7909L10.6397 16.6573C10.2294 16.4924 9.77024 16.4924 9.35998 16.6573L6.53999 17.7909C5.37394 18.2596 4.11526 17.3556 4.20589 16.1145L4.42506 13.113C4.45694 12.6763 4.31504 12.2446 4.0296 11.9099L2.06758 9.60895C1.2563 8.65754 1.73708 7.19483 2.95913 6.89651L5.91457 6.17505C6.34454 6.07009 6.71604 5.80328 6.94989 5.43148L8.55728 2.87586Z" fill="#F56630"/>
</svg>
