<svg width="25" height="24" viewBox="0 0 25 24" fill="none" xmlns="http://www.w3.org/2000/svg">
<path fill-rule="evenodd" clip-rule="evenodd" d="M12.046 1.1001C6.03 1.1001 1.146 5.98409 1.146 12.0001C1.146 18.0161 6.03 22.9001 12.046 22.9001C18.062 22.9001 22.946 18.0161 22.946 12.0001C22.946 5.98409 18.062 1.1001 12.046 1.1001ZM12.046 2.90009C17.068 2.90009 21.146 6.97809 21.146 12.0001C21.146 17.0221 17.068 21.1001 12.046 21.1001C7.024 21.1001 2.946 17.0221 2.946 12.0001C2.946 6.97809 7.024 2.90009 12.046 2.90009Z" fill="white"/>
<path fill-rule="evenodd" clip-rule="evenodd" d="M9.055 9.20905C9.055 9.20905 7.957 9.90704 6.585 9.90704C6.088 9.90704 5.685 10.31 5.685 10.807C5.685 11.304 6.088 11.707 6.585 11.707C8.497 11.707 10.025 10.725 10.025 10.725C10.443 10.458 10.565 9.90102 10.298 9.48202C10.03 9.06402 9.473 8.94105 9.055 9.20905Z" fill="white"/>
<path fill-rule="evenodd" clip-rule="evenodd" d="M14.067 10.725C14.067 10.725 15.595 11.707 17.507 11.707C18.004 11.707 18.407 11.304 18.407 10.807C18.407 10.31 18.004 9.90704 17.507 9.90704C16.135 9.90704 15.037 9.20905 15.037 9.20905C14.619 8.94105 14.062 9.06402 13.794 9.48202C13.527 9.90102 13.649 10.458 14.067 10.725Z" fill="white"/>
<path fill-rule="evenodd" clip-rule="evenodd" d="M9.54504 16.7819C9.54504 16.7819 12.046 15.1149 14.547 16.7819C14.96 17.0569 15.519 16.9459 15.795 16.5319C16.07 16.1189 15.959 15.56 15.545 15.284C12.046 12.951 8.54704 15.284 8.54704 15.284C8.13304 15.56 8.02204 16.1189 8.29704 16.5319C8.57304 16.9459 9.13204 17.0569 9.54504 16.7819Z" fill="white"/>
</svg>
