<svg width="24" height="24" viewBox="0 0 24 24" fill="none" xmlns="http://www.w3.org/2000/svg">
<g clip-path="url(#clip0_5032_15942)">
<path d="M15.5019 6.89636L12.7899 10.7484C12.6879 10.8939 12.5259 10.9719 12.3609 10.9719C12.2559 10.9719 12.1509 10.9404 12.0594 10.8759C11.8224 10.7094 11.7654 10.3809 11.9319 10.1439L12.0849 9.92636C11.9904 9.84236 11.8959 9.75836 11.7999 9.67736C11.6409 9.53786 11.4804 9.40436 11.3214 9.27536L11.3754 9.20786C11.5404 8.92136 11.6724 8.61386 11.7729 8.29286C11.8419 8.34686 11.9124 8.40386 11.9829 8.46086C12.1239 8.57486 12.2664 8.69336 12.4074 8.81486C12.5034 8.89586 12.5979 8.97836 12.6924 9.06236L14.6424 6.29186C14.8104 6.05486 15.1374 5.99786 15.3744 6.16436C15.6114 6.33236 15.6684 6.65936 15.5019 6.89636ZM20.1609 14.9829C20.0709 15.0429 19.9704 15.0714 19.8699 15.0714C19.7004 15.0714 19.5339 14.9889 19.4334 14.8374C18.9609 14.1294 18.2769 13.7274 17.4009 13.6404C17.0904 13.6089 16.7904 13.6224 16.5189 13.6584C16.1469 13.7094 15.8259 13.8069 15.5934 13.9014C15.3984 13.9824 15.2649 14.0604 15.2154 14.1099C15.0114 14.3139 14.6784 14.3139 14.4744 14.1099C14.2689 13.9044 14.2689 13.5714 14.4744 13.3674C14.5929 13.2489 14.7654 13.1319 14.9769 13.0254C14.8659 12.8799 14.7489 12.7314 14.6274 12.5814H14.6259C14.1774 12.0279 13.6749 11.4699 13.1289 10.9194L13.4784 10.4229L13.7424 10.0479L13.7979 10.1034C14.3979 10.7034 14.9499 11.3139 15.4419 11.9184C15.6519 12.1779 15.8469 12.4314 16.0254 12.6774C16.4859 12.5829 16.9974 12.5439 17.5044 12.5949C18.6924 12.7134 19.6614 13.2864 20.3064 14.2554C20.4669 14.4969 20.4024 14.8224 20.1609 14.9829ZM20.0652 5.62061L15.5878 9.48941C15.3684 9.67901 15.3442 10.0107 15.5338 10.23C15.6376 10.3503 15.784 10.4118 15.9313 10.4118C16.053 10.4118 16.1751 10.3698 16.2742 10.284L20.7516 6.41516C20.971 6.22556 20.9952 5.89406 20.8056 5.67461C20.616 5.45531 20.2843 5.43101 20.0652 5.62061ZM23.2129 9.66296C23.1688 9.52721 23.0514 9.42836 22.9101 9.40781L21.7434 9.23816L21.2215 8.18096C21.1582 8.05286 21.0279 7.97186 20.8852 7.97186C20.7424 7.97186 20.6122 8.05301 20.5489 8.18096L20.0272 9.23816L18.8605 9.40781C18.7194 9.42836 18.6018 9.52721 18.5577 9.66296C18.5136 9.79871 18.5503 9.94766 18.6526 10.0474L19.4968 10.8703L19.2976 12.0324C19.2735 12.1731 19.3314 12.3153 19.4467 12.3991C19.5621 12.483 19.7155 12.4942 19.8417 12.4276L20.8852 11.8789L21.9289 12.4276C21.9837 12.4564 22.0437 12.4707 22.1034 12.4707C22.1811 12.4707 22.2585 12.4465 22.3239 12.399C22.4394 12.315 22.4971 12.1729 22.473 12.0322L22.2738 10.8702L23.118 10.0473C23.2203 9.94766 23.257 9.79871 23.2129 9.66296ZM21.609 10.4709C21.5206 10.557 21.4803 10.681 21.5011 10.8028L21.6052 11.4103L21.0595 11.1235C21.0049 11.0949 20.9449 11.0805 20.8851 11.0805C20.8252 11.0805 20.7652 11.0949 20.7106 11.1235L20.1651 11.4103L20.2692 10.8028C20.2902 10.681 20.2497 10.557 20.1613 10.4709L19.72 10.0407L20.3299 9.95201C20.452 9.93431 20.5578 9.85751 20.6124 9.74696L20.8849 9.19421L21.1576 9.74696C21.2122 9.85766 21.3178 9.93431 21.4401 9.95201L22.05 10.0407L21.609 10.4709ZM4.25458 3.76466L4.05523 4.92686C4.03108 5.06756 4.08898 5.20976 4.20448 5.29361C4.31983 5.37746 4.47283 5.38856 4.59943 5.32211L5.64298 4.77341L6.68653 5.32211C6.74143 5.35091 6.80128 5.36516 6.86098 5.36516C6.93883 5.36516 7.01623 5.34101 7.08148 5.29346C7.19698 5.20961 7.25488 5.06741 7.23073 4.92671L7.03138 3.76466L7.87573 2.94176C7.97788 2.84216 8.01478 2.69306 7.97053 2.55731C7.92643 2.42156 7.80913 2.32256 7.66783 2.30201L6.50113 2.13251L5.97928 1.07531C5.91613 0.947211 5.78578 0.866211 5.64298 0.866211C5.50018 0.866211 5.36983 0.947211 5.30667 1.07531L4.78483 2.13251L3.61813 2.30201C3.47683 2.32256 3.35953 2.42141 3.31543 2.55731C3.27133 2.69306 3.30808 2.84201 3.41023 2.94176L4.25458 3.76466ZM5.08783 2.84651C5.20993 2.82866 5.31568 2.75201 5.37013 2.64131L5.64283 2.08856L5.91553 2.64131C5.97013 2.75201 6.07573 2.82866 6.19783 2.84651L6.80773 2.93516L6.36643 3.36536C6.27808 3.45146 6.23773 3.57566 6.25858 3.69731L6.36268 4.30466L5.81728 4.01786C5.70793 3.96041 5.57743 3.96041 5.46823 4.01786L4.92268 4.30466L5.02678 3.69716C5.04763 3.57551 5.00743 3.45146 4.91893 3.36536L4.47763 2.93516L5.08783 2.84651Z" fill="white"/>
<path d="M16.8729 14.0034C16.4334 14.0259 16.0509 14.1294 15.7959 14.2269C16.0959 14.7399 16.2204 15.0714 16.2714 15.2634C16.299 15.3681 16.3081 15.4384 16.3101 15.4851L16.3005 15.4893C16.2537 15.4872 16.1838 15.4791 16.0839 15.4524C15.8784 15.3969 15.5169 15.2604 14.9514 14.9184C14.4744 14.6289 13.9524 14.2554 13.4004 13.8069C12.8229 13.3389 12.2394 12.8109 11.6664 12.2364C11.0919 11.6619 10.5639 11.0784 10.0959 10.5024C9.64738 9.95037 9.27238 9.42837 8.98438 8.95137C8.64238 8.38587 8.50588 8.02437 8.45038 7.81887C8.42353 7.71852 8.41558 7.64847 8.41348 7.60167L8.41738 7.59267C8.46268 7.59462 8.53438 7.60362 8.63788 7.63137C8.84338 7.68537 9.20638 7.82187 9.77188 8.16537C9.80188 8.18337 9.83338 8.20287 9.86488 8.22387C9.96823 8.28672 10.0731 8.35407 10.1793 8.42757C10.107 8.56302 10.0261 8.69292 9.93493 8.81427C9.76063 9.04602 9.80728 9.37512 10.039 9.54942C10.1335 9.62052 10.2444 9.65472 10.3542 9.65472C10.5136 9.65472 10.671 9.58242 10.7742 9.44532C10.9756 9.17742 11.1423 8.88237 11.2738 8.56842C11.2797 8.55432 11.2846 8.53992 11.2905 8.52582C11.3175 8.45952 11.3434 8.39277 11.3671 8.32497C11.3772 8.29647 11.3857 8.26737 11.3952 8.23872C11.4127 8.18517 11.4301 8.13162 11.4457 8.07732C11.4486 8.06757 11.452 8.05827 11.4547 8.04852C11.4543 8.04822 11.454 8.04792 11.4535 8.04762C11.6761 7.25157 11.6911 6.37032 11.4766 5.51097C11.1751 4.30287 10.4725 3.33732 9.59698 2.92827C9.33448 2.80542 9.02173 2.91897 8.89918 3.18162C8.77648 3.44427 8.88988 3.75672 9.15253 3.87942C9.73543 4.15182 10.2357 4.87422 10.4578 5.76492C10.5954 6.31617 10.6158 6.87582 10.527 7.39782C10.5267 7.39767 10.5264 7.39737 10.5261 7.39722C10.4541 7.35222 10.3836 7.30872 10.3146 7.26672C9.77608 6.93972 9.30208 6.72072 8.90758 6.61572C8.35558 6.47022 7.93108 6.54072 7.64608 6.82572C7.50823 6.96357 7.42183 7.13397 7.38403 7.33452L0.81253 22.3987C0.72613 22.5966 0.76978 22.8271 0.92248 22.9798C1.02298 23.0805 1.15738 23.1336 1.29388 23.1336C1.36468 23.1336 1.43608 23.1192 1.50358 23.0898L16.5619 16.5205C16.7655 16.4833 16.9378 16.3951 17.0767 16.2562C17.3617 15.9712 17.4322 15.5467 17.2867 14.9947C17.2104 14.7054 17.0709 14.3739 16.8729 14.0034ZM8.08588 9.49587C8.39938 10.0134 8.80138 10.5744 9.27988 11.1639C9.77188 11.7684 10.3239 12.3789 10.9239 12.9789C11.5224 13.5789 12.1344 14.1309 12.7389 14.6229C13.3284 15.1014 13.8894 15.5034 14.4069 15.8154C14.5809 15.921 14.7472 16.0141 14.9073 16.0971L13.3639 16.7704C10.8091 16.8508 8.32753 16.041 6.93853 14.6509C6.42463 14.1366 6.11293 13.5835 6.03313 13.0578L7.80538 8.99532C7.88803 9.15507 7.98073 9.32157 8.08588 9.49587ZM7.28578 19.4218C5.93968 19.3833 4.90783 19.0555 4.35283 18.4834C4.15318 18.2776 4.02373 18.0445 3.96568 17.7967L5.58928 14.0751C5.78173 14.4558 6.05668 14.8291 6.40813 15.1807C7.42648 16.1998 9.28648 17.2129 11.7673 17.4667L7.28578 19.4218ZM3.56893 18.7065C3.64168 18.81 3.72208 18.9106 3.81463 19.006C4.18078 19.3834 4.81768 19.8057 5.90278 20.0254L2.30983 21.5929L3.56893 18.7065ZM18.9747 4.41297C19.8027 4.41297 20.4763 3.73932 20.4763 2.91132C20.4763 2.08332 19.8027 1.40967 18.9747 1.40967C18.1467 1.40967 17.473 2.08332 17.473 2.91132C17.473 3.73932 18.1467 4.41297 18.9747 4.41297ZM18.9747 2.15967C19.3891 2.15967 19.7263 2.49687 19.7263 2.91132C19.7263 3.32577 19.3891 3.66297 18.9747 3.66297C18.5602 3.66297 18.223 3.32577 18.223 2.91132C18.223 2.49687 18.5602 2.15967 18.9747 2.15967ZM13.7071 5.20947C14.4442 5.20947 15.0438 4.60992 15.0438 3.87282C15.0438 3.13572 14.4442 2.53617 13.7071 2.53617C12.97 2.53617 12.3705 3.13572 12.3705 3.87282C12.3705 4.60992 12.9702 5.20947 13.7071 5.20947ZM13.7071 3.28632C14.0305 3.28632 14.2938 3.54942 14.2938 3.87297C14.2938 4.19652 14.0307 4.45962 13.7071 4.45962C13.3836 4.45962 13.1205 4.19652 13.1205 3.87297C13.1205 3.54942 13.3837 3.28632 13.7071 3.28632ZM20.1013 16.7778C19.3642 16.7778 18.7647 17.3773 18.7647 18.1143C18.7647 18.8514 19.3642 19.4509 20.1013 19.4509C20.8383 19.4509 21.4378 18.8514 21.4378 18.1143C21.4378 17.3773 20.8383 16.7778 20.1013 16.7778ZM20.1013 18.7009C19.7779 18.7009 19.5147 18.4377 19.5147 18.1143C19.5147 17.7909 19.7779 17.5278 20.1013 17.5278C20.4247 17.5278 20.6878 17.7909 20.6878 18.1143C20.6878 18.4377 20.4247 18.7009 20.1013 18.7009Z" fill="white"/>
</g>
<defs>
<clipPath id="clip0_5032_15942">
<rect width="24" height="24" fill="white"/>
</clipPath>
</defs>
</svg>
